<svg width="16" height="16" viewBox="0 0 16 16" fill="none" xmlns="http://www.w3.org/2000/svg">
<path d="M15 0L0.625 0C0.279297 0 0 0.279297 0 0.625L0 15C0 15.3457 0.279297 15.625 0.625 15.625H15C15.3457 15.625 15.625 15.3457 15.625 15V0.625C15.625 0.279297 15.3457 0 15 0ZM4.63477 13.3145H2.31641V5.85742H4.63477V13.3145ZM3.47656 4.83789C3.21079 4.83789 2.95099 4.75908 2.73001 4.61143C2.50904 4.46377 2.3368 4.25391 2.2351 4.00837C2.13339 3.76283 2.10678 3.49265 2.15863 3.23199C2.21048 2.97133 2.33846 2.73189 2.52639 2.54397C2.71431 2.35604 2.95375 2.22806 3.21441 2.17621C3.47507 2.12436 3.74525 2.15097 3.99079 2.25268C4.23633 2.35438 4.4462 2.52661 4.59385 2.74759C4.7415 2.96857 4.82031 3.22837 4.82031 3.49414C4.81836 4.23633 4.2168 4.83789 3.47656 4.83789ZM13.3145 13.3145H10.998V9.6875C10.998 8.82227 10.9824 7.71094 9.79297 7.71094C8.58789 7.71094 8.40234 8.65234 8.40234 9.625V13.3145H6.08789V5.85742H8.31055V6.87695H8.3418C8.65039 6.29102 9.40625 5.67188 10.5352 5.67188C12.8828 5.67188 13.3145 7.2168 13.3145 9.22461V13.3145Z" fill="white"/>
</svg>
