<svg width="15" height="15" viewBox="0 0 15 15" fill="none" xmlns="http://www.w3.org/2000/svg">
<path d="M14.5469 6.13086H7.49023V9.03125H11.5215C11.3477 9.96875 10.8203 10.7617 10.0254 11.293C9.35352 11.7422 8.49609 12.0078 7.48828 12.0078C5.53711 12.0078 3.88672 10.6895 3.29688 8.91797C3.14844 8.46875 3.0625 7.98828 3.0625 7.49414C3.0625 7 3.14844 6.51953 3.29688 6.07031C3.88867 4.30078 5.53906 2.98242 7.49023 2.98242C8.58984 2.98242 9.57617 3.36133 10.3535 4.10352L12.502 1.95312C11.2031 0.742188 9.50977 0 7.49023 0C4.5625 0 2.0293 1.67969 0.796875 4.12891C0.289063 5.14062 0 6.28516 0 7.49609C0 8.70703 0.289063 9.84961 0.796875 10.8613C2.0293 13.3105 4.5625 14.9902 7.49023 14.9902C9.51367 14.9902 11.209 14.3184 12.4473 13.1738C13.8633 11.8691 14.6816 9.94727 14.6816 7.66406C14.6816 7.13281 14.6348 6.62305 14.5469 6.13086Z" fill="white"/>
</svg>
